:SAMPLES-PER-SECOND 30
:FULLY-SPECIFIED
:DEGREES
1708
root  32.8878 34.1849 4.57878 35.353 68.9138 31.9778
RightUpLeg  -29.0514 -1.51233 -21.9509
RightLeg  58.9825 1.74116 2.66606
RightFoot  -31.9635 1.23343 7.97056
RightToes  -1.81608e-008 0 -3.6325e-017
Spine  24.2334 -0.962279 5.09367
Spine1  -4.86417 1.05667 -8.06874
HEad  -39.788 -15.944 -0.340363
LeftShoulder1  -0.496221 4.86786 -30.2236
LeftArm  -14.3489 34.2721 -47.1187
LeftForeArm  14.9004 -4.2838 -3.46672
LeftHand  -0.032397 9.73799 0.532725
RightShoulder  -0.577623 -5.33777 24.7258
RightArm  12.8194 12.4014 44.7853
RightForeArm  4.72623 19.7057 4.57716
RightHand  -0.314617 1.55393 -5.41915
LeftUpLeg  -14.5726 16.6672 19.5106
LeftLeg  0.710902 6.06625 -0.558479
LeftFoot  4.44857 2.45567 -17.7805
LeftToes  1.81866e-011 -6.13092e-011 2.52013e-011
1709
root  32.3343 34.5768 4.91509 38.3162 68.6724 35.0223
RightUpLeg  -29.1186 -0.781357 -22.0188
RightLeg  57.4555 1.10514 1.4222
RightFoot  -30.6779 1.12066 7.79353
RightToes  -1.81608e-008 0 -3.6325e-017
Spine  23.4656 -1.16333 4.80472
Spine1  -4.0381 0.611557 -6.66709
HEad  -37.9837 -14.3445 -2.58571
LeftShoulder1  -0.513035 4.90177 -30.5549
LeftArm  -13.8432 31.2273 -46.0244
LeftForeArm  14.4116 -4.66763 -3.54296
LeftHand  -0.0503562 9.92553 0.0866275
RightShoulder  -0.470905 -5.04651 23.6525
RightArm  12.0892 12.1033 45.0551
RightForeArm  6.23692 15.2356 5.09525
RightHand  -0.283514 0.971181 -5.28602
LeftUpLeg  -13.7302 15.8738 17.7062
LeftLeg  1.9977 4.53157 -1.08235
LeftFoot  4.25474 2.58793 -18.9284
LeftToes  1.81866e-011 -6.13092e-011 2.52013e-011
1710
root  31.8552 35.0673 5.22209 41.15 68.6067 38.3644
RightUpLeg  -28.1994 -0.158496 -22.1732
RightLeg  55.2479 0.470685 0.323669
RightFoot  -29.0458 0.975312 7.52553
RightToes  -1.81608e-008 0 -3.6325e-017
Spine  22.814 -1.4573 4.21665
Spine1  -3.2735 0.0320726 -5.52537
HEad  -35.7216 -12.8344 -4.90031
LeftShoulder1  -0.455714 4.74975 -30.4147
LeftArm  -13.0205 27.2986 -45.2199
LeftForeArm  13.9483 -4.74702 -3.86282
LeftHand  0.00416598 10.1871 1.38301
RightShoulder  -0.380034 -4.77276 22.9899
RightArm  9.44562 10.6564 45.0233
RightForeArm  7.93691 11.2663 5.44989
RightHand  -0.258076 0.850723 -4.92036
LeftUpLeg  -11.8576 14.5002 15.7209
LeftLeg  2.47398 5.63336 -0.955743
LeftFoot  3.55657 2.33944 -17.9382
LeftToes  1.81866e-011 -6.13092e-011 2.52013e-011
1711
root  31.4708 35.5945 5.50707 43.4089 69.1027 40.8408
RightUpLeg  -26.9353 0.46944 -21.6966
RightLeg  52.4668 -0.487074 -1.05908
RightFoot  -27.3006 0.856766 7.42637
RightToes  -1.81608e-008 0 -3.6325e-017
Spine  22.054 -1.80013 3.7847
Spine1  -3.06857 -0.603438 -4.32797
HEad  -34.025 -11.2132 -5.46925
LeftShoulder1  -0.407073 4.64226 -29.6134
LeftArm  -12.4728 23.6585 -44.8629
LeftForeArm  15.4238 -5.85369 -4.2242
LeftHand  0.00993205 9.9533 1.56542
RightShoulder  -0.362521 -4.70342 23.2079
RightArm  8.34737 8.18673 44.0108
RightForeArm  6.87936 9.0667 5.4534
RightHand  -0.269325 0.408597 -5.46878
LeftUpLeg  -10.0677 13.7245 14.3742
LeftLeg  3.03806 6.71931 -0.981689
LeftFoot  3.18547 2.27796 -17.8984
LeftToes  1.81866e-011 -6.13092e-011 2.52013e-011
1712
root  31.0999 36.0344 5.77681 46.9466 70.0876 44.0393
RightUpLeg  -26.1353 0.380239 -21.0674
RightLeg  50.0034 -1.44315 -2.20155
RightFoot  -25.8122 0.73755 7.18572
RightToes  -1.81608e-008 0 -3.6325e-017
Spine  21.3399 -1.85326 2.74927
Spine1  -3.96214 -1.23213 -1.98228
HEad  -32.1632 -9.52954 -6.4967
LeftShoulder1  -0.382969 4.58322 -29.3061
LeftArm  -11.6629 20.2735 -44.1728
LeftForeArm  16.3018 -8.35657 -4.81129
LeftHand  0.0403984 9.67614 2.406
RightShoulder  -0.344587 -4.64914 23.0485
RightArm  8.39553 4.54397 42.318
RightForeArm  5.15411 8.37536 5.43268
RightHand  -0.245198 0.892653 -4.63424
LeftUpLeg  -9.28773 13.0171 13.1628
LeftLeg  4.12038 6.39882 -0.916157
LeftFoot  2.57402 2.12605 -17.4359
LeftToes  1.81866e-011 -6.13092e-011 2.52013e-011
1713
root  30.7242 36.4158 5.99675 51.9948 71.3633 48.9238
RightUpLeg  -25.061 -0.644658 -20.6813
RightLeg  47.6816 -2.11175 -2.8132
RightFoot  -24.6142 0.636147 6.89335
RightToes  -1.81608e-008 0 -3.6325e-017
Spine  20.7428 -2.21119 2.25472
Spine1  -4.73153 -1.88356 -0.72478
HEad  -30.9302 -7.99388 -7.40007
LeftShoulder1  -0.315265 4.40612 -28.7875
LeftArm  -10.3323 16.9316 -43.7417
LeftForeArm  16.4898 -12.2718 -4.97286
LeftHand  0.033261 8.7774 2.60505
RightShoulder  -0.332142 -4.59838 23.2636
RightArm  8.62953 0.493247 40.6094
RightForeArm  5.34592 8.49529 5.34967
RightHand  -0.248496 0.904766 -4.69204
LeftUpLeg  -8.66219 12.0192 11.7779
LeftLeg  4.96872 4.99908 -0.691828
LeftFoot  2.30416 2.03771 -17.042
LeftToes  1.81866e-011 -6.13092e-011 2.52013e-011
1714
root  30.3944 36.7644 6.17494 54.5461 72.3979 51.2283
RightUpLeg  -24.2407 -1.1515 -19.78
RightLeg  45.3578 -2.67444 -3.21332
RightFoot  -23.3822 0.501944 6.26006
RightToes  -1.81608e-008 0 -3.6325e-017
Spine  19.8774 -2.25074 2.2733
Spine1  -4.72035 -2.07304 0.289748
HEad  -29.6096 -5.70566 -8.52708
LeftShoulder1  -0.299159 4.3611 -28.7242
LeftArm  -8.03309 14.3441 -43.3988
LeftForeArm  13.8632 -18.7165 -4.5148
LeftHand  0.0210927 7.82193 2.88494
RightShoulder  -0.293613 -4.4822 22.8608
RightArm  9.30105 -3.24359 39.5938
RightForeArm  5.64712 8.67414 5.41316
RightHand  -0.246294 1.00297 -4.58323
LeftUpLeg  -7.44746 11.9116 11.3662
LeftLeg  5.26417 4.12275 -0.928122
LeftFoot  1.93924 2.00519 -17.2243
LeftToes  1.81866e-011 -6.13092e-011 2.52013e-011
1715
root  30.0742 37.0111 6.32462 58.0464 73.4499 54.455
RightUpLeg  -23.7267 -2.36063 -19.0645
RightLeg  43.6389 -2.89192 -3.25004
RightFoot  -22.5375 0.408511 5.7255
RightToes  -1.81608e-008 0 -3.6325e-017
Spine  19.3146 -2.35318 2.11051
Spine1  -5.14558 -2.28808 0.919243
HEad  -28.7496 -3.88461 -9.34993
LeftShoulder1  -0.286605 4.33406 -28.4032
LeftArm  -8.49298 12.8281 -43.096
LeftForeArm  15.421 -26.9255 -4.84938
LeftHand  0.0358013 7.38981 3.98028
RightShoulder  -0.330198 -4.58336 23.4972
RightArm  10.4957 -6.04137 37.8472
RightForeArm  6.33897 8.67456 5.61185
RightHand  -0.223377 0.54951 -4.45753
LeftUpLeg  -6.57249 11.8731 11.0761
LeftLeg  5.56411 3.44946 -1.19401
LeftFoot  1.06436 1.91724 -17.5758
LeftToes  1.81866e-011 -6.13092e-011 2.52013e-011
1716
root  29.7648 37.2156 6.43414 62.1178 74.6059 58.1545
RightUpLeg  -23.3576 -3.51651 -18.3056
RightLeg  42.1065 -3.16868 -3.35448
RightFoot  -21.8271 0.36206 5.55726
RightToes  -1.81608e-008 0 -3.6325e-017
Spine  18.9394 -2.4807 1.862
Spine1  -5.52607 -2.54922 1.67896
HEad  -28.5164 -2.64577 -9.59943
LeftShoulder1  -0.363014 4.5724 -27.7767
LeftArm  -10.9496 11.5554 -43.3167
LeftForeArm  21.4776 -35.6041 -6.77728
LeftHand  -0.00206221 6.29058 3.62601
RightShoulder  -0.391422 -4.76441 24.0987
RightArm  11.6327 -7.74878 36.533
RightForeArm  6.08387 7.81939 5.92639
RightHand  -0.234464 0.192021 -4.93561
LeftUpLeg  -6.09487 11.8196 10.903
LeftLeg  5.56794 3.33193 -1.2321
LeftFoot  0.699259 1.77068 -16.733
LeftToes  1.81866e-011 -6.13092e-011 2.52013e-011
1717
root  29.4655 37.3526 6.51884 65.7057 75.5047 61.5868
RightUpLeg  -23.0655 -4.19823 -17.6827
RightLeg  41.0152 -3.47334 -3.51502
RightFoot  -21.5789 0.362914 5.68209
RightToes  -1.81608e-008 0 -3.6325e-017
Spine  19.0069 -2.28982 1.6298
Spine1  -6.15849 -2.43671 2.23445
HEad  -28.0177 -1.80695 -9.83476
LeftShoulder1  -0.350681 4.52282 -28.2194
LeftArm  -11.5277 10.4876 -42.8186
LeftForeArm  26.4815 -44.4174 -9.14044
LeftHand  -0.0096394 5.84479 4.77062
RightShoulder  -0.382199 -4.73072 24.1749
RightArm  11.0946 -10.0986 35.7097
RightForeArm  6.95736 7.6964 5.5502
RightHand  -0.209741 0.765905 -4.03193
LeftUpLeg  -5.61496 11.6381 10.7897
LeftLeg  5.52304 3.69487 -1.02386
LeftFoot  0.278447 1.70024 -16.6281
LeftToes  1.81866e-011 -6.13092e-011 2.52013e-011
1718
root  29.1847 37.4559 6.56254 69.6507 76.455 65.4293
RightUpLeg  -22.7722 -4.88261 -17.0003
RightLeg  40.0974 -3.87929 -3.77289
RightFoot  -21.4472 0.382555 5.96759
RightToes  -1.81608e-008 0 -3.6325e-017
Spine  18.9678 -2.2264 1.47286
Spine1  -6.30536 -2.44255 2.66831
HEad  -27.7092 -1.38004 -10.3878
LeftShoulder1  -0.430621 4.75807 -28.144
LeftArm  -11.1376 9.06151 -42.9707
LeftForeArm  29.0998 -50.93 -11.5436
LeftHand  -0.0571564 4.63461 5.97194
RightShoulder  -0.382409 -4.73177 24.1397
RightArm  10.1817 -11.1159 35.6087
RightForeArm  7.26988 6.84501 5.13408
RightHand  -0.156341 0.270666 -3.28739
LeftUpLeg  -5.51348 11.7753 10.9688
LeftLeg  5.84393 3.1474 -1.00563
LeftFoot  -0.128025 1.62065 -16.4105
LeftToes  1.81866e-011 -6.13092e-011 2.52013e-011
